<svg xmlns="http://www.w3.org/2000/svg" width="1280" height="720" viewBox="0 0 1280 720" fill="none">
  <rect width="1280" height="720" fill="#f8fafc"/>
  <rect x="40" y="40" width="200" height="640" rx="12" fill="#ffffff" stroke="#e2e8f0"/>
  <rect x="260" y="40" width="980" height="64" rx="12" fill="#ffffff" stroke="#e2e8f0"/>
  <rect x="260" y="120" width="980" height="560" rx="12" fill="#ffffff" stroke="#e2e8f0"/>
  <text x="70" y="100" fill="#6366f1" font-family="system-ui, sans-serif" font-size="18" font-weight="700">GitVibes</text>
  <rect x="60" y="130" width="160" height="28" rx="6" fill="#eef2ff"/>
  <rect x="60" y="170" width="140" height="22" rx="4" fill="#f1f5f9"/>
  <rect x="60" y="202" width="150" height="22" rx="4" fill="#f1f5f9"/>
  <text x="290" y="82" fill="#0f172a" font-family="system-ui, sans-serif" font-size="22" font-weight="700">Git for Vibe Coders</text>
  <rect x="290" y="150" width="420" height="220" rx="10" fill="#0f172a"/>
  <text x="310" y="190" fill="#4ade80" font-family="ui-monospace, monospace" font-size="16">$ git status</text>
  <text x="310" y="220" fill="#94a3b8" font-family="ui-monospace, monospace" font-size="14">modified: src/auth.py</text>
  <text x="310" y="245" fill="#94a3b8" font-family="ui-monospace, monospace" font-size="14">modified: src/routes.py</text>
  <text x="310" y="280" fill="#4ade80" font-family="ui-monospace, monospace" font-size="16">$ git add .</text>
  <text x="310" y="320" fill="#4ade80" font-family="ui-monospace, monospace" font-size="16">$ git commit -m "feat: auth"</text>
  <rect x="740" y="150" width="480" height="220" rx="10" fill="#f8fafc" stroke="#e2e8f0"/>
  <circle cx="820" cy="260" r="8" fill="#6366f1"/>
  <circle cx="900" cy="260" r="8" fill="#10b981"/>
  <circle cx="980" cy="220" r="8" fill="#6366f1"/>
  <line x1="828" y1="260" x2="892" y2="260" stroke="#94a3b8" stroke-width="2"/>
  <line x1="908" y1="255" x2="972" y2="225" stroke="#94a3b8" stroke-width="2"/>
  <text x="290" y="420" fill="#475569" font-family="system-ui, sans-serif" font-size="18">Interactive sandboxes · Live playground · Cheat sheet</text>
</svg>
